<?xml version="1.0" standalone="no"?>
<!DOCTYPE svg PUBLIC "-//W3C//DTD SVG 20010904//EN"
 "http://www.w3.org/TR/2001/REC-SVG-20010904/DTD/svg10.dtd">
<svg version="1.0" xmlns="http://www.w3.org/2000/svg"
 width="320.000000pt" height="320.000000pt" viewBox="0 0 320.000000 320.000000"
 preserveAspectRatio="xMidYMid meet">
<metadata>
Created by potrace 1.14, written by Peter Selinger 2001-2017
</metadata>
<g transform="translate(0.000000,320.000000) scale(0.100000,-0.100000)"
fill="#000000" stroke="none">
<path d="M1145 2013 c-11 -2 -26 -6 -33 -8 -7 -3 -14 -5 -17 -5 -3 0 -27 -11
-53 -24 -106 -54 -258 -200 -394 -378 -153 -201 -214 -248 -319 -248 -89 0
-137 41 -124 107 7 40 22 59 57 71 54 19 85 -23 53 -72 l-17 -25 32 9 c43 12
59 27 68 64 10 37 -7 76 -46 107 -41 32 -127 22 -181 -20 -52 -41 -86 -111
-85 -176 1 -65 7 -115 14 -115 3 0 11 -12 17 -27 22 -49 113 -134 150 -139 8
-2 23 -10 34 -20 10 -9 19 -14 19 -11 0 3 15 0 34 -8 69 -29 175 -42 313 -39
111 3 144 8 333 58 13 4 55 21 143 59 15 7 27 15 27 19 0 5 6 8 13 8 15 0 177
105 222 145 46 40 126 119 162 159 l32 36 93 -94 c117 -117 249 -216 348 -261
19 -8 42 -19 50 -24 14 -9 128 -55 140 -57 3 0 25 -6 50 -13 130 -38 363 -48
475 -21 28 6 57 13 65 15 76 17 166 68 218 124 91 96 108 213 46 318 -23 40
-73 86 -95 89 -5 1 -10 2 -11 3 -10 8 -60 11 -93 6 -53 -8 -85 -50 -81 -107 4
-47 23 -69 66 -74 l32 -4 -16 26 c-20 29 -13 63 12 65 65 5 96 -23 96 -88 1
-42 -2 -49 -33 -70 -44 -30 -124 -31 -185 -2 -58 27 -98 68 -219 224 -156 199
-300 336 -412 388 -65 31 -161 40 -248 24 -54 -10 -195 -82 -227 -117 -3 -3
-19 -18 -37 -33 l-31 -29 -23 21 c-13 11 -35 30 -49 42 -81 70 -197 119 -293
123 -40 1 -81 1 -92 -1z"/>
</g>
</svg>
